<svg width="115" height="24" viewBox="0 0 115 24" fill="none" xmlns="http://www.w3.org/2000/svg">
<path d="M14.2975 12.041C14.2975 13.589 13.9965 14.9722 13.3945 16.1905C12.7925 17.4088 11.9468 18.3548 10.8575 19.0285C9.7825 19.7022 8.54267 20.039 7.138 20.039C5.74767 20.039 4.50783 19.7022 3.4185 19.0285C2.3435 18.3548 1.505 17.4088 0.903 16.1905C0.301 14.9722 0 13.589 0 12.041C0 10.4787 0.301 9.08833 0.903 7.87C1.505 6.65167 2.3435 5.70567 3.4185 5.032C4.50783 4.344 5.74767 4 7.138 4C8.54267 4 9.7825 4.344 10.8575 5.032C11.9468 5.70567 12.7925 6.65167 13.3945 7.87C13.9965 9.08833 14.2975 10.4787 14.2975 12.041ZM2.451 12.041C2.451 13.245 2.6445 14.3128 3.0315 15.2445C3.43283 16.1762 3.98467 16.9 4.687 17.416C5.40367 17.932 6.22067 18.19 7.138 18.19C8.06967 18.19 8.89383 17.932 9.6105 17.416C10.3415 16.9 10.9005 16.1762 11.2875 15.2445C11.6888 14.3128 11.8895 13.245 11.8895 12.041C11.8895 10.8227 11.6888 9.74767 11.2875 8.816C10.9005 7.87 10.3415 7.139 9.6105 6.623C8.89383 6.107 8.06967 5.849 7.138 5.849C6.22067 5.849 5.40367 6.107 4.687 6.623C3.98467 7.139 3.43283 7.87 3.0315 8.816C2.6445 9.74767 2.451 10.8227 2.451 12.041Z" fill="#171717"/>
<path d="M16.9344 19.781V4.2365H22.2019C23.3199 4.2365 24.2946 4.44433 25.1259 4.86C25.9573 5.26133 26.5879 5.83467 27.0179 6.58C27.4623 7.311 27.6844 8.16383 27.6844 9.1385C27.6844 10.1275 27.4623 10.9947 27.0179 11.74C26.5879 12.4853 25.9573 13.0658 25.1259 13.4815C24.2946 13.8828 23.3199 14.0835 22.2019 14.0835H19.2349V19.781H16.9344ZM21.7934 12.2775C22.9258 12.2775 23.7858 12.0052 24.3734 11.4605C24.9611 10.9158 25.2549 10.1418 25.2549 9.1385C25.2549 8.13517 24.9611 7.36833 24.3734 6.838C23.7858 6.29333 22.9258 6.021 21.7934 6.021H19.2349V12.2775H21.7934Z" fill="#171717"/>
<path d="M30.015 19.781V4.2365H35.2825C36.4005 4.2365 37.3752 4.44433 38.2065 4.86C39.0378 5.26133 39.6685 5.83467 40.0985 6.58C40.5428 7.311 40.765 8.16383 40.765 9.1385C40.765 10.1275 40.5428 10.9947 40.0985 11.74C39.6685 12.4853 39.0378 13.0658 38.2065 13.4815C37.3752 13.8828 36.4005 14.0835 35.2825 14.0835H32.3155V19.781H30.015ZM34.874 12.2775C36.0063 12.2775 36.8663 12.0052 37.454 11.4605C38.0417 10.9158 38.3355 10.1418 38.3355 9.1385C38.3355 8.13517 38.0417 7.36833 37.454 6.838C36.8663 6.29333 36.0063 6.021 34.874 6.021H32.3155V12.2775H34.874Z" fill="#171717"/>
<path d="M56.8986 12.041C56.8986 13.589 56.5976 14.9722 55.9956 16.1905C55.3936 17.4088 54.5479 18.3548 53.4586 19.0285C52.3836 19.7022 51.1437 20.039 49.7391 20.039C48.3487 20.039 47.1089 19.7022 46.0196 19.0285C44.9446 18.3548 44.1061 17.4088 43.5041 16.1905C42.9021 14.9722 42.6011 13.589 42.6011 12.041C42.6011 10.4787 42.9021 9.08833 43.5041 7.87C44.1061 6.65167 44.9446 5.70567 46.0196 5.032C47.1089 4.344 48.3487 4 49.7391 4C51.1437 4 52.3836 4.344 53.4586 5.032C54.5479 5.70567 55.3936 6.65167 55.9956 7.87C56.5976 9.08833 56.8986 10.4787 56.8986 12.041ZM45.0521 12.041C45.0521 13.245 45.2456 14.3128 45.6326 15.2445C46.0339 16.1762 46.5857 16.9 47.2881 17.416C48.0047 17.932 48.8217 18.19 49.7391 18.19C50.6707 18.19 51.4949 17.932 52.2116 17.416C52.9426 16.9 53.5016 16.1762 53.8886 15.2445C54.2899 14.3128 54.4906 13.245 54.4906 12.041C54.4906 10.8227 54.2899 9.74767 53.8886 8.816C53.5016 7.87 52.9426 7.139 52.2116 6.623C51.4949 6.107 50.6707 5.849 49.7391 5.849C48.8217 5.849 48.0047 6.107 47.2881 6.623C46.5857 7.139 46.0339 7.87 45.6326 8.816C45.2456 9.74767 45.0521 10.8227 45.0521 12.041Z" fill="#171717"/>
<path d="M64.416 8.3215C64.416 6.9885 64.9034 5.935 65.878 5.161C66.867 4.387 68.1857 4 69.834 4C71.167 4 72.2779 4.27233 73.1665 4.817C74.0695 5.34733 74.6859 6.107 75.0155 7.096L73.102 7.913C72.8584 7.25367 72.4642 6.75917 71.9195 6.4295C71.3892 6.0855 70.6725 5.9135 69.7695 5.9135C68.7948 5.9135 68.0567 6.107 67.555 6.494C67.0533 6.881 66.8025 7.42567 66.8025 8.128C66.8025 8.687 66.9602 9.1385 67.2755 9.4825C67.5909 9.8265 67.985 10.0917 68.458 10.278C68.931 10.45 69.5832 10.6363 70.4145 10.837C71.4752 11.095 72.328 11.3602 72.973 11.6325C73.6324 11.9048 74.1914 12.342 74.65 12.944C75.1087 13.546 75.338 14.363 75.338 15.395C75.338 16.8713 74.8149 18.018 73.7685 18.835C72.7222 19.6377 71.3319 20.039 69.5975 20.039C68.1355 20.039 66.9029 19.738 65.8995 19.136C64.8962 18.534 64.2153 17.6812 63.857 16.5775L65.7705 15.7175C66.0428 16.5058 66.5087 17.1007 67.168 17.502C67.8274 17.9033 68.6515 18.104 69.6405 18.104C70.7012 18.104 71.5182 17.8818 72.0915 17.4375C72.6649 16.9932 72.9515 16.3625 72.9515 15.5455C72.9515 14.9435 72.7795 14.4633 72.4355 14.105C72.1058 13.7323 71.6902 13.4528 71.1885 13.2665C70.7012 13.0658 70.0275 12.858 69.1675 12.643C68.1212 12.3707 67.2898 12.1055 66.6735 11.8475C66.0572 11.5752 65.5269 11.1595 65.0825 10.6005C64.6382 10.0415 64.416 9.28183 64.416 8.3215Z" fill="#171717"/>
<path d="M82.8467 10.02H79.9657V16.255C79.9657 16.9717 80.1234 17.4877 80.4387 17.803C80.7684 18.104 81.2629 18.2545 81.9222 18.2545C82.2662 18.2545 82.5744 18.2258 82.8467 18.1685V19.8455C82.4454 19.9745 81.9652 20.039 81.4062 20.039C80.2882 20.039 79.4067 19.7452 78.7617 19.1575C78.1311 18.5555 77.8157 17.6883 77.8157 16.556V10.02H76.0527V8.3215H77.8157V5.5265H79.9657V8.3215H82.8467V10.02Z" fill="#171717"/>
<path d="M84.1288 14.062C84.1288 12.901 84.3582 11.869 84.8168 10.966C85.2898 10.063 85.942 9.36067 86.7733 8.859C87.619 8.35733 88.5722 8.1065 89.6328 8.1065C90.6935 8.1065 91.6395 8.35733 92.4708 8.859C93.3022 9.36067 93.9543 10.063 94.4273 10.966C94.9003 11.869 95.1368 12.901 95.1368 14.062C95.1368 15.2373 94.9003 16.2765 94.4273 17.1795C93.9543 18.0825 93.3022 18.7848 92.4708 19.2865C91.6395 19.7882 90.6935 20.039 89.6328 20.039C88.5722 20.039 87.619 19.7882 86.7733 19.2865C85.942 18.7848 85.2898 18.0825 84.8168 17.1795C84.3582 16.2765 84.1288 15.2373 84.1288 14.062ZM92.8578 14.062C92.8578 12.8007 92.5568 11.7902 91.9548 11.0305C91.3672 10.2708 90.5932 9.891 89.6328 9.891C88.6725 9.891 87.8913 10.2708 87.2893 11.0305C86.6873 11.7902 86.3863 12.8007 86.3863 14.062C86.3863 15.3233 86.6873 16.341 87.2893 17.115C87.8913 17.8747 88.6725 18.2545 89.6328 18.2545C90.5932 18.2545 91.3672 17.8747 91.9548 17.115C92.5568 16.341 92.8578 15.3233 92.8578 14.062Z" fill="#171717"/>
<path d="M99.2989 8.3215C99.3706 8.82317 99.4064 9.48967 99.4064 10.321C99.7504 9.60433 100.216 9.05967 100.804 8.687C101.406 8.3 102.094 8.1065 102.868 8.1065C103.183 8.1065 103.405 8.128 103.534 8.171V10.0415C103.276 10.0128 103.047 9.9985 102.846 9.9985C101.886 9.9985 101.112 10.2995 100.524 10.9015C99.9511 11.4892 99.6644 12.3062 99.6644 13.3525V19.781H97.5359V11.009C97.5359 10.5933 97.5073 9.6975 97.4499 8.3215H99.2989Z" fill="#171717"/>
<path d="M104.495 14.062C104.495 12.8867 104.732 11.8475 105.205 10.9445C105.678 10.0415 106.337 9.34633 107.183 8.859C108.028 8.35733 108.996 8.1065 110.085 8.1065C111.705 8.1065 112.945 8.63683 113.805 9.6975C114.679 10.7582 115.116 12.2058 115.116 14.0405C115.116 14.2985 115.109 14.4777 115.095 14.578H106.753C106.81 15.7677 107.154 16.6778 107.785 17.3085C108.415 17.9392 109.247 18.2545 110.279 18.2545C110.938 18.2545 111.483 18.1112 111.913 17.8245C112.357 17.5378 112.73 17.1007 113.031 16.513L114.858 17.3515C114.5 18.1972 113.941 18.8565 113.181 19.3295C112.436 19.8025 111.475 20.039 110.3 20.039C109.11 20.039 108.078 19.7953 107.204 19.308C106.33 18.8063 105.656 18.1112 105.183 17.2225C104.724 16.3195 104.495 15.266 104.495 14.062ZM112.859 12.987C112.744 11.9693 112.436 11.2025 111.934 10.6865C111.447 10.1562 110.795 9.891 109.978 9.891C109.132 9.891 108.422 10.1633 107.849 10.708C107.29 11.2383 106.939 11.998 106.796 12.987H112.859Z" fill="#171717"/>
</svg>
