<?xml version="1.0" encoding="utf-8"?>
<!-- Generator: Adobe Illustrator 26.4.1, SVG Export Plug-In . SVG Version: 6.00 Build 0)  -->
<svg width="24" height="24" version="1.1" id="图层_1" xmlns="http://www.w3.org/2000/svg" xmlns:xlink="http://www.w3.org/1999/xlink" x="0px" y="0px"
	 viewBox="0 0 24 24" style="enable-background:new 0 0 24 24;" xml:space="preserve">
<g>
	<g>
		<path d="M9.8,10.8c-0.5,0-0.8,0.6-0.8,1.3s0.4,1.3,0.8,1.3c0.5,0,0.8-0.6,0.8-1.3S10.3,10.8,9.8,10.8z"/>
		<ellipse cx="14.2" cy="12.1" rx="0.8" ry="1.3"/>
	</g>
	<path d="M19.8,9.1L19.8,9.1c-0.1,0-0.2,0-0.2,0c-0.4-1-1-1.8-1.8-2.6c0.9-1.3,0.5-2.3,0.5-2.3c-0.1-0.4-0.4-0.7-0.7-0.8
		c-0.8-0.4-1.8-0.1-2,0C14.2,4,12.6,4,12.3,4l0,0h-0.5C8.6,4.1,5.6,6.2,4.5,9c-0.1,0-0.1,0-0.2,0l0,0c-0.9,0.2-2.6,1.2-2.6,3.6
		c0,1.6,0.9,4.7,3.5,4.7h0.1c1.5,2.2,4.2,3.6,6.9,3.6s5.2-1.4,6.6-3.6l0,0c2.6,0,3.5-3,3.6-4.7C22.4,10.3,20.8,9.1,19.8,9.1z
		 M3.2,12.6c-0.1-1.6,1.2-2,1.4-2c0.1,0,0.1,0,0.2,0c0.5,0.3,0.8,1.6,0.9,2.4c0.3,2.2-0.2,2.8-0.3,2.9C3.4,15.9,3.2,12.6,3.2,12.6z
		 M12.1,19.4c-2.1,0-4.4-1.1-5.6-2.8c0.6-0.8,0.8-2,0.5-3.9c0-0.3-0.3-2.2-1.3-3.1c1-2.3,3.5-4,6-4.1h0.5c0.1,0,2.1,0,3.9-0.7
		c0.3-0.1,0.7-0.1,0.8-0.1c0,0,0.1,0.5-0.5,1.2c-0.4,0.4-0.3,1,0,1.3l0,0c0.7,0.7,1.4,1.5,1.8,2.4c-0.9,0.9-1.2,2.8-1.3,3.2
		c-0.2,1.9-0.1,3.1,0.5,3.9C16.2,18.3,14.2,19.4,12.1,19.4z M18.7,15.8c-0.1,0-0.6-0.7-0.3-2.9c0.1-0.8,0.5-2.1,0.9-2.4
		c0.1,0,0.1,0,0.1,0l0,0c0.2,0.1,1.4,0.4,1.4,2C20.8,12.6,20.6,15.9,18.7,15.8z"/>
	<path d="M19.5,11.9c-0.1,0.1-0.6,0.8-0.6,2.2c0,0.3,0.2,0.5,0.5,0.5l0,0c0.3,0,0.5-0.2,0.5-0.5c0-1,0.4-1.6,0.4-1.6
		c0.2-0.2,0.1-0.5-0.1-0.7C20,11.7,19.7,11.7,19.5,11.9z"/>
	<path d="M3.8,11.9c-0.2,0.2-0.2,0.5-0.1,0.7c0,0,0.4,0.5,0.4,1.6c0,0.3,0.2,0.5,0.5,0.5l0,0c0.3,0,0.5-0.2,0.5-0.5
		c0-1.4-0.6-2.2-0.6-2.2C4.3,11.7,4,11.7,3.8,11.9z"/>
</g>
</svg>
